<svg width="25" height="25" viewBox="0 0 25 25" fill="none" xmlns="http://www.w3.org/2000/svg">
<path d="M5.5 21.5H3.5V20.5C3.50441 16.6358 6.63583 13.5044 10.5 13.5H14.5C18.3642 13.5044 21.4956 16.6358 21.5 20.5V21.5H19.5V20.5C19.4967 17.7399 17.2601 15.5033 14.5 15.5H10.5C7.73995 15.5033 5.50331 17.7399 5.5 20.5V21.5ZM12.5 12.5C9.73858 12.5 7.5 10.2614 7.5 7.5C7.5 4.73858 9.73858 2.5 12.5 2.5C15.2614 2.5 17.5 4.73858 17.5 7.5C17.4967 10.2601 15.2601 12.4967 12.5 12.5ZM12.5 4.5C10.8431 4.5 9.5 5.84315 9.5 7.5C9.5 9.15685 10.8431 10.5 12.5 10.5C14.1569 10.5 15.5 9.15685 15.5 7.5C15.5 5.84315 14.1569 4.5 12.5 4.5Z" fill="white"/>
</svg>
