<svg width="25" height="25" viewBox="0 0 25 25" fill="none" xmlns="http://www.w3.org/2000/svg">
<path d="M12.5 21.5C11.855 20.928 11.126 20.333 10.355 19.7H10.345C7.63002 17.48 4.55302 14.968 3.19402 11.958C2.74754 10.9997 2.51093 9.95712 2.50001 8.9C2.49703 7.44948 3.07879 6.05898 4.11383 5.04276C5.14887 4.02654 6.54981 3.47039 8.00002 3.5C9.18065 3.50186 10.3359 3.84308 11.328 4.483C11.764 4.76596 12.1584 5.10825 12.5 5.5C12.8435 5.10979 13.2381 4.7677 13.673 4.483C14.6648 3.84295 15.8197 3.50171 17 3.5C18.4502 3.47039 19.8512 4.02654 20.8862 5.04276C21.9213 6.05898 22.503 7.44948 22.5 8.9C22.4898 9.95881 22.2532 11.0032 21.806 11.963C20.447 14.973 17.371 17.484 14.656 19.7L14.646 19.708C13.874 20.337 13.146 20.932 12.501 21.508L12.5 21.5ZM8.00002 5.5C7.06853 5.48834 6.17009 5.84484 5.50002 6.492C4.85441 7.12616 4.49358 7.99504 4.49994 8.9C4.51135 9.6705 4.68585 10.4298 5.01202 11.128C5.65353 12.4267 6.51913 13.602 7.56902 14.6C8.56002 15.6 9.70002 16.568 10.686 17.382C10.959 17.607 11.237 17.834 11.515 18.061L11.69 18.204C11.957 18.422 12.233 18.648 12.5 18.87L12.513 18.858L12.519 18.853H12.525L12.534 18.846H12.539H12.544L12.562 18.831L12.603 18.798L12.61 18.792L12.621 18.784H12.627L12.636 18.776L13.3 18.231L13.474 18.088C13.755 17.859 14.033 17.632 14.306 17.407C15.292 16.593 16.433 15.626 17.424 14.621C18.4741 13.6236 19.3397 12.4485 19.981 11.15C20.3131 10.4458 20.4901 9.6785 20.5001 8.9C20.5042 7.99783 20.1435 7.13229 19.5 6.5C18.8312 5.84992 17.9326 5.49048 17 5.5C15.8619 5.49032 14.774 5.96736 14.01 6.811L12.5 8.551L10.99 6.811C10.2261 5.96736 9.1381 5.49032 8.00002 5.5Z" fill="white"/>
</svg>
