<svg width="25" height="25" viewBox="0 0 25 25" fill="none" xmlns="http://www.w3.org/2000/svg">
<path d="M19.177 20.107L13.462 14.391C10.9196 16.1984 7.41642 15.7563 5.40285 13.3739C3.38929 10.9915 3.53714 7.46358 5.74298 5.25799C7.94824 3.05144 11.4765 2.90295 13.8594 4.9164C16.2422 6.92986 16.6846 10.4334 14.877 12.976L20.592 18.692L19.178 20.106L19.177 20.107ZM9.98498 5.49997C8.08868 5.49955 6.45267 6.83066 6.06745 8.68742C5.68224 10.5442 6.65369 12.4163 8.39366 13.1702C10.1336 13.9242 12.1639 13.3528 13.2552 11.802C14.3466 10.2513 14.199 8.14731 12.902 6.76399L13.507 7.36399L12.825 6.68399L12.813 6.67199C12.0648 5.91917 11.0464 5.49712 9.98498 5.49997Z" fill="white"/>
</svg>
