<svg width="86" height="16" viewBox="0 0 86 16" fill="none" xmlns="http://www.w3.org/2000/svg">
<path d="M5.22875 12.096C4.86608 12.096 4.61542 11.9893 4.47675 11.776C4.34875 11.552 4.28475 11.296 4.28475 11.008C4.28475 10.656 4.35408 10.2347 4.49275 9.744C4.63142 9.24267 4.79142 8.74133 4.97275 8.24C5.16475 7.728 5.33542 7.27467 5.48475 6.88C5.52742 6.784 5.54875 6.68267 5.54875 6.576C5.54875 6.45867 5.51142 6.37333 5.43675 6.32C5.36208 6.26667 5.26608 6.24 5.14875 6.24C4.97808 6.24 4.78608 6.29333 4.57275 6.4C4.24208 6.57067 3.92742 6.84267 3.62875 7.216C3.33008 7.58933 3.09008 7.97867 2.90875 8.384C2.70608 8.84267 2.52475 9.30133 2.36475 9.76C2.20475 10.2187 2.07675 10.592 1.98075 10.88C1.91675 11.0613 1.85808 11.248 1.80475 11.44C1.75142 11.632 1.69808 11.8187 1.64475 12H0.0927491C0.0927491 12 0.130082 11.8667 0.204749 11.6C0.268749 11.3333 0.354082 11.0667 0.460749 10.8C0.642082 10.3307 0.823416 9.86133 1.00475 9.392C1.19675 8.92267 1.36208 8.50667 1.50075 8.144C1.54342 8.03733 1.60742 7.84 1.69275 7.552C1.78875 7.25333 1.87408 6.944 1.94875 6.624C2.03408 6.304 2.07675 6.04267 2.07675 5.84C2.07675 5.72267 2.06075 5.64267 2.02875 5.6C2.12475 5.6 2.23142 5.6 2.34875 5.6C2.47675 5.58933 2.59408 5.584 2.70075 5.584C2.85008 5.584 2.98875 5.58933 3.11675 5.6C3.25542 5.61067 3.34608 5.63733 3.38875 5.68C3.51675 5.776 3.58075 5.91467 3.58075 6.096C3.58075 6.224 3.55408 6.352 3.50075 6.48C3.45808 6.608 3.42608 6.71467 3.40475 6.8C3.55408 6.66133 3.70875 6.528 3.86875 6.4C4.02875 6.272 4.27408 6.10667 4.60475 5.904C4.79675 5.78667 5.03675 5.69067 5.32475 5.616C5.61275 5.54133 5.87408 5.504 6.10875 5.504C6.71675 5.504 7.02075 5.78667 7.02075 6.352C7.02075 6.448 7.01008 6.55467 6.98875 6.672C6.97808 6.78933 6.94608 6.91733 6.89275 7.056C6.83942 7.22667 6.75408 7.46133 6.63675 7.76C6.51942 8.05867 6.39675 8.37867 6.26875 8.72C6.15142 9.05067 6.05008 9.36533 5.96475 9.664C5.87942 9.96267 5.83675 10.2027 5.83675 10.384C5.83675 10.64 5.93275 10.768 6.12475 10.768C6.29542 10.768 6.50875 10.6613 6.76475 10.448C7.01008 10.2453 7.22342 10.0267 7.40475 9.792C7.62875 9.51467 7.83142 9.22133 8.01275 8.912C8.20475 8.592 8.37008 8.29867 8.50875 8.032C8.56208 7.94667 8.59942 7.904 8.62075 7.904C8.68475 7.904 8.71675 7.99467 8.71675 8.176C8.71675 8.26133 8.70075 8.36267 8.66875 8.48C8.64742 8.58667 8.61008 8.688 8.55675 8.784C8.40742 9.04 8.23142 9.32267 8.02875 9.632C7.82608 9.94133 7.61808 10.24 7.40475 10.528C7.25542 10.7307 7.05808 10.9547 6.81275 11.2C6.56742 11.4453 6.30608 11.6587 6.02875 11.84C5.75142 12.0107 5.48475 12.096 5.22875 12.096ZM9.9255 12.128C9.43483 12.128 9.00817 11.9733 8.6455 11.664C8.2935 11.3547 8.1175 10.8587 8.1175 10.176C8.1175 9.67467 8.20817 9.152 8.3895 8.608C8.57083 8.064 8.82683 7.55733 9.1575 7.088C9.49883 6.61867 9.9095 6.23467 10.3895 5.936C10.8695 5.63733 11.4082 5.488 12.0055 5.488C12.4962 5.488 12.8748 5.584 13.1415 5.776C13.4188 5.95733 13.6162 6.20267 13.7335 6.512C13.8508 6.82133 13.9095 7.152 13.9095 7.504C13.9095 7.77067 13.8775 8.04267 13.8135 8.32C13.7602 8.58667 13.6802 8.85333 13.5735 9.12C13.7548 9.33333 13.9842 9.44 14.2615 9.44C14.5602 9.44 14.8375 9.328 15.0935 9.104C15.2428 8.976 15.3762 8.816 15.4935 8.624C15.6215 8.42133 15.7335 8.23467 15.8295 8.064C15.8615 8 15.8988 7.968 15.9415 7.968C15.9948 7.968 16.0215 8.04267 16.0215 8.192C16.0215 8.288 16.0055 8.4 15.9735 8.528C15.9522 8.656 15.8988 8.784 15.8135 8.912C15.6535 9.18933 15.4882 9.40267 15.3175 9.552C15.1468 9.69067 14.9548 9.80267 14.7415 9.888C14.5815 9.952 14.4108 9.984 14.2295 9.984C13.8988 9.984 13.6002 9.88267 13.3335 9.68C13.2482 9.86133 13.1415 10.048 13.0135 10.24C12.7042 10.7627 12.3042 11.2107 11.8135 11.584C11.3228 11.9467 10.6935 12.128 9.9255 12.128ZM10.5335 11.52C10.7788 11.52 11.0135 11.44 11.2375 11.28C11.4722 11.1093 11.6855 10.9013 11.8775 10.656C12.0695 10.4107 12.2348 10.1547 12.3735 9.888C12.5228 9.62133 12.6455 9.38667 12.7415 9.184C12.3788 8.87467 12.1975 8.48533 12.1975 8.016C12.1975 7.70667 12.2828 7.46667 12.4535 7.296C12.6242 7.12533 12.8588 7.05067 13.1575 7.072C13.1468 6.82667 13.0828 6.624 12.9655 6.464C12.8482 6.304 12.6562 6.224 12.3895 6.224C12.1442 6.224 11.9095 6.29867 11.6855 6.448C11.4722 6.59733 11.2695 6.78933 11.0775 7.024C10.8962 7.248 10.7308 7.48267 10.5815 7.728C10.4428 7.96267 10.3255 8.176 10.2295 8.368C10.0908 8.64533 9.96283 8.98133 9.8455 9.376C9.72817 9.77067 9.6695 10.1387 9.6695 10.48C9.6695 10.7787 9.72817 11.0293 9.8455 11.232C9.9735 11.424 10.2028 11.52 10.5335 11.52ZM16.745 12.096C16.4357 12.096 16.201 11.9733 16.041 11.728C15.9663 11.6107 15.913 11.472 15.881 11.312C15.849 11.152 15.833 10.9867 15.833 10.816C15.833 10.6453 15.8437 10.4747 15.865 10.304C15.8863 10.1227 15.913 9.94667 15.945 9.776C15.9983 9.49867 16.057 9.248 16.121 9.024C16.1957 8.78933 16.2703 8.56533 16.345 8.352V8.336C16.2597 8.496 16.153 8.672 16.025 8.864C15.897 9.04533 15.8063 9.17867 15.753 9.264C15.6783 9.38133 15.6197 9.44 15.577 9.44C15.5343 9.44 15.513 9.392 15.513 9.296C15.513 9.08267 15.577 8.848 15.705 8.592C15.7903 8.42133 15.9077 8.20267 16.057 7.936C16.2063 7.65867 16.361 7.36 16.521 7.04C16.681 6.72 16.8197 6.41067 16.937 6.112H15.865C15.8117 6.112 15.801 6.06933 15.833 5.984C15.865 5.89867 15.913 5.81867 15.977 5.744C16.041 5.65867 16.089 5.616 16.121 5.616H17.337C17.4543 5.33867 17.5877 5.04 17.737 4.72C17.897 4.4 18.073 4.10133 18.265 3.824C18.4677 3.536 18.6863 3.30133 18.921 3.12C19.1557 2.93867 19.4063 2.848 19.673 2.848C19.7903 2.848 19.9343 2.848 20.105 2.848C20.2863 2.848 20.3983 2.84267 20.441 2.832C20.217 2.98133 19.9557 3.28 19.657 3.728C19.3583 4.16533 19.033 4.79467 18.681 5.616H20.297C20.329 5.616 20.3183 5.65867 20.265 5.744C20.2117 5.81867 20.1423 5.89867 20.057 5.984C19.9823 6.06933 19.9077 6.112 19.833 6.112H18.457C18.3183 6.464 18.1637 6.848 17.993 7.264C17.833 7.68 17.6837 8.09067 17.545 8.496C17.417 8.89067 17.321 9.25333 17.257 9.584C17.2143 9.78667 17.193 9.97333 17.193 10.144C17.193 10.5493 17.321 10.752 17.577 10.752C17.7477 10.752 17.9503 10.6667 18.185 10.496C18.4197 10.3253 18.6543 10.0907 18.889 9.792C19.1023 9.51467 19.305 9.216 19.497 8.896C19.6997 8.576 19.8703 8.28267 20.009 8.016C20.0517 7.94133 20.089 7.904 20.121 7.904C20.185 7.904 20.217 7.98933 20.217 8.16C20.217 8.24533 20.201 8.34667 20.169 8.464C20.1477 8.57067 20.105 8.67733 20.041 8.784C19.8917 9.04 19.7157 9.32267 19.513 9.632C19.3103 9.93067 19.1023 10.2293 18.889 10.528C18.7397 10.72 18.5423 10.9387 18.297 11.184C18.0623 11.4293 17.8063 11.6427 17.529 11.824C17.2623 12.0053 17.001 12.096 16.745 12.096ZM24.4734 12.096C24.1427 12.096 23.9134 11.968 23.7854 11.712C23.668 11.456 23.6094 11.1413 23.6094 10.768C23.6094 10.4267 23.6414 10.0907 23.7054 9.76C23.7374 9.61067 23.7694 9.46133 23.8014 9.312C23.844 9.152 23.892 8.98667 23.9454 8.816C23.764 9.14667 23.572 9.46667 23.3694 9.776C23.1774 10.0853 22.98 10.3573 22.7774 10.592C22.436 11.008 22.0734 11.3547 21.6894 11.632C21.316 11.9093 20.9427 12.048 20.5694 12.048C20.2707 12.048 20.0147 11.9413 19.8014 11.728C19.5987 11.504 19.4974 11.12 19.4974 10.576C19.4974 10.0213 19.5934 9.45067 19.7854 8.864C19.9774 8.27733 20.244 7.73333 20.5854 7.232C20.9374 6.72 21.348 6.30933 21.8174 6C22.2974 5.69067 22.82 5.536 23.3854 5.536C23.5667 5.536 23.764 5.56267 23.9774 5.616C24.1907 5.66933 24.388 5.77067 24.5694 5.92C24.7507 6.05867 24.8734 6.256 24.9374 6.512C24.948 6.49067 24.9587 6.47467 24.9694 6.464C24.9907 6.45333 25.0067 6.44267 25.0174 6.432C25.1667 6.19733 25.3374 6 25.5294 5.84C25.7214 5.68 25.9347 5.6 26.1694 5.6C26.2867 5.6 26.452 5.60533 26.6654 5.616C26.8787 5.62667 27.0334 5.62667 27.1294 5.616C27.076 5.65867 27.0014 5.744 26.9054 5.872C26.82 6 26.74 6.13333 26.6654 6.272C26.5907 6.4 26.532 6.50133 26.4894 6.576C26.2014 7.13067 25.94 7.68 25.7054 8.224C25.4707 8.768 25.2894 9.29067 25.1614 9.792C25.1294 9.89867 25.108 10 25.0974 10.096C25.0867 10.1813 25.0814 10.2667 25.0814 10.352C25.0814 10.6293 25.172 10.768 25.3534 10.768C25.524 10.768 25.7374 10.6613 25.9934 10.448C26.3667 10.1493 26.692 9.776 26.9694 9.328C27.2574 8.88 27.508 8.448 27.7214 8.032C27.764 7.95733 27.8014 7.92 27.8334 7.92C27.8974 7.92 27.9294 8.01067 27.9294 8.192C27.9294 8.27733 27.9134 8.37333 27.8814 8.48C27.86 8.58667 27.8227 8.688 27.7694 8.784C27.62 9.04 27.4227 9.35467 27.1774 9.728C26.9427 10.1013 26.676 10.4693 26.3774 10.832C26.0787 11.184 25.764 11.4827 25.4334 11.728C25.1134 11.9733 24.7934 12.096 24.4734 12.096ZM21.2894 10.704C21.3214 10.7147 21.3694 10.72 21.4334 10.72C21.636 10.72 21.8547 10.6347 22.0894 10.464C22.324 10.2933 22.5587 10.0747 22.7934 9.808C23.028 9.53067 23.236 9.25333 23.4174 8.976C23.8867 8.22933 24.2334 7.66933 24.4574 7.296C24.6814 6.92267 24.8094 6.70933 24.8414 6.656C24.788 6.47467 24.692 6.34133 24.5534 6.256C24.4254 6.17067 24.2707 6.128 24.0894 6.128C23.8547 6.128 23.604 6.192 23.3374 6.32C23.0814 6.448 22.8627 6.60267 22.6814 6.784C22.404 7.06133 22.1374 7.41867 21.8814 7.856C21.636 8.29333 21.4334 8.72533 21.2734 9.152C21.124 9.57867 21.0494 9.936 21.0494 10.224C21.0494 10.4907 21.1294 10.6507 21.2894 10.704ZM28.6119 12.096C28.3025 12.096 28.0679 11.9733 27.9079 11.728C27.8332 11.6107 27.7799 11.472 27.7479 11.312C27.7159 11.152 27.6999 10.9867 27.6999 10.816C27.6999 10.6453 27.7105 10.4747 27.7319 10.304C27.7532 10.1227 27.7799 9.94667 27.8119 9.776C27.8652 9.49867 27.9239 9.248 27.9879 9.024C28.0625 8.78933 28.1372 8.56533 28.2119 8.352V8.336C28.1265 8.496 28.0199 8.672 27.8919 8.864C27.7639 9.04533 27.6732 9.17867 27.6199 9.264C27.5452 9.38133 27.4865 9.44 27.4439 9.44C27.4012 9.44 27.3799 9.392 27.3799 9.296C27.3799 9.08267 27.4439 8.848 27.5719 8.592C27.6572 8.42133 27.7745 8.20267 27.9239 7.936C28.0732 7.65867 28.2279 7.36 28.3879 7.04C28.5479 6.72 28.6865 6.41067 28.8039 6.112H27.7319C27.6785 6.112 27.6679 6.06933 27.6999 5.984C27.7319 5.89867 27.7799 5.81867 27.8439 5.744C27.9079 5.65867 27.9559 5.616 27.9879 5.616H29.2039C29.3212 5.33867 29.4545 5.04 29.6039 4.72C29.7639 4.4 29.9399 4.10133 30.1319 3.824C30.3345 3.536 30.5532 3.30133 30.7879 3.12C31.0225 2.93867 31.2732 2.848 31.5399 2.848C31.6572 2.848 31.8012 2.848 31.9719 2.848C32.1532 2.848 32.2652 2.84267 32.3079 2.832C32.0839 2.98133 31.8225 3.28 31.5239 3.728C31.2252 4.16533 30.8999 4.79467 30.5479 5.616H32.1639C32.1959 5.616 32.1852 5.65867 32.1319 5.744C32.0785 5.81867 32.0092 5.89867 31.9239 5.984C31.8492 6.06933 31.7745 6.112 31.6999 6.112H30.3239C30.1852 6.464 30.0305 6.848 29.8599 7.264C29.6999 7.68 29.5505 8.09067 29.4119 8.496C29.2839 8.89067 29.1879 9.25333 29.1239 9.584C29.0812 9.78667 29.0599 9.97333 29.0599 10.144C29.0599 10.5493 29.1879 10.752 29.4439 10.752C29.6145 10.752 29.8172 10.6667 30.0519 10.496C30.2865 10.3253 30.5212 10.0907 30.7559 9.792C30.9692 9.51467 31.1719 9.216 31.3639 8.896C31.5665 8.576 31.7372 8.28267 31.8759 8.016C31.9185 7.94133 31.9559 7.904 31.9879 7.904C32.0519 7.904 32.0839 7.98933 32.0839 8.16C32.0839 8.24533 32.0679 8.34667 32.0359 8.464C32.0145 8.57067 31.9719 8.67733 31.9079 8.784C31.7585 9.04 31.5825 9.32267 31.3799 9.632C31.1772 9.93067 30.9692 10.2293 30.7559 10.528C30.6065 10.72 30.4092 10.9387 30.1639 11.184C29.9292 11.4293 29.6732 11.6427 29.3959 11.824C29.1292 12.0053 28.8679 12.096 28.6119 12.096ZM35.7162 12.096C35.3536 12.096 35.1029 11.9893 34.9642 11.776C34.8362 11.552 34.7722 11.296 34.7722 11.008C34.7722 10.656 34.8416 10.2347 34.9802 9.744C35.1189 9.24267 35.2789 8.74133 35.4602 8.24C35.6522 7.728 35.8229 7.27467 35.9722 6.88C36.0149 6.784 36.0362 6.68267 36.0362 6.576C36.0362 6.45867 35.9989 6.37333 35.9242 6.32C35.8496 6.26667 35.7536 6.24 35.6362 6.24C35.4656 6.24 35.2736 6.29333 35.0602 6.4C34.7296 6.57067 34.4149 6.84267 34.1162 7.216C33.8176 7.58933 33.5776 7.97867 33.3962 8.384C33.1936 8.84267 33.0122 9.30133 32.8522 9.76C32.6922 10.2187 32.5642 10.592 32.4682 10.88C32.4042 11.0613 32.3456 11.248 32.2922 11.44C32.2389 11.632 32.1856 11.8187 32.1322 12H30.5802C30.5802 12 30.6176 11.8667 30.6922 11.6C30.7562 11.3333 30.8416 11.0667 30.9482 10.8C31.1296 10.3307 31.3109 9.86133 31.4922 9.392C31.6842 8.92267 31.8496 8.50667 31.9882 8.144C32.0309 8.03733 32.0949 7.84 32.1802 7.552C32.2762 7.25333 32.3616 6.944 32.4362 6.624C32.5216 6.304 32.5642 6.04267 32.5642 5.84C32.5642 5.72267 32.5482 5.64267 32.5162 5.6C32.6122 5.6 32.7189 5.6 32.8362 5.6C32.9642 5.58933 33.0816 5.584 33.1882 5.584C33.3376 5.584 33.4762 5.58933 33.6042 5.6C33.7429 5.61067 33.8336 5.63733 33.8762 5.68C34.0042 5.776 34.0682 5.91467 34.0682 6.096C34.0682 6.224 34.0416 6.352 33.9882 6.48C33.9456 6.608 33.9136 6.71467 33.8922 6.8C34.0416 6.66133 34.1962 6.528 34.3562 6.4C34.5162 6.272 34.7616 6.10667 35.0922 5.904C35.2842 5.78667 35.5242 5.69067 35.8122 5.616C36.1002 5.54133 36.3616 5.504 36.5962 5.504C37.2042 5.504 37.5082 5.78667 37.5082 6.352C37.5082 6.448 37.4976 6.55467 37.4762 6.672C37.4656 6.78933 37.4336 6.91733 37.3802 7.056C37.3269 7.22667 37.2416 7.46133 37.1242 7.76C37.0069 8.05867 36.8842 8.37867 36.7562 8.72C36.6389 9.05067 36.5376 9.36533 36.4522 9.664C36.3669 9.96267 36.3242 10.2027 36.3242 10.384C36.3242 10.64 36.4202 10.768 36.6122 10.768C36.7829 10.768 36.9962 10.6613 37.2522 10.448C37.4976 10.2453 37.7109 10.0267 37.8922 9.792C38.1162 9.51467 38.3189 9.22133 38.5002 8.912C38.6922 8.592 38.8576 8.29867 38.9962 8.032C39.0496 7.94667 39.0869 7.904 39.1082 7.904C39.1722 7.904 39.2042 7.99467 39.2042 8.176C39.2042 8.26133 39.1882 8.36267 39.1562 8.48C39.1349 8.58667 39.0976 8.688 39.0442 8.784C38.8949 9.04 38.7189 9.32267 38.5162 9.632C38.3136 9.94133 38.1056 10.24 37.8922 10.528C37.7429 10.7307 37.5456 10.9547 37.3002 11.2C37.0549 11.4453 36.7936 11.6587 36.5162 11.84C36.2389 12.0107 35.9722 12.096 35.7162 12.096ZM42.093 4.32C41.8157 4.224 41.677 4.04267 41.677 3.776C41.677 3.53067 41.773 3.28 41.965 3.024C42.1677 2.75733 42.3863 2.58667 42.621 2.512C42.6743 2.49067 42.717 2.48 42.749 2.48C42.7917 2.48 42.8343 2.48 42.877 2.48C43.0583 2.48 43.2077 2.53333 43.325 2.64C43.4423 2.74667 43.501 2.86933 43.501 3.008C43.501 3.2 43.3997 3.36 43.197 3.488C43.037 3.46667 42.8823 3.504 42.733 3.6C42.5837 3.696 42.4503 3.81333 42.333 3.952C42.2263 4.09067 42.1463 4.21333 42.093 4.32ZM39.341 12.096C39.2023 12.096 39.069 12.064 38.941 12C38.813 11.9467 38.7063 11.8347 38.621 11.664C38.5037 11.408 38.445 11.104 38.445 10.752C38.445 10.368 38.5037 9.94133 38.621 9.472C38.7383 8.992 38.893 8.50133 39.085 8C39.1597 7.81867 39.2557 7.59467 39.373 7.328C39.4903 7.06133 39.629 6.79467 39.789 6.528C39.949 6.26133 40.1303 6.04267 40.333 5.872C40.5463 5.69067 40.7757 5.6 41.021 5.6C41.1383 5.6 41.3037 5.60533 41.517 5.616C41.7303 5.62667 41.885 5.62667 41.981 5.616C41.917 5.65867 41.8423 5.744 41.757 5.872C41.6717 6 41.5917 6.13333 41.517 6.272C41.4423 6.4 41.3837 6.50133 41.341 6.576C41.0637 7.13067 40.8023 7.68 40.557 8.224C40.3117 8.768 40.125 9.29067 39.997 9.792C39.9757 9.87733 39.9597 9.96267 39.949 10.048C39.9383 10.1333 39.933 10.2133 39.933 10.288C39.933 10.5973 40.0343 10.752 40.237 10.752C40.3223 10.752 40.413 10.7307 40.509 10.688C40.6157 10.6347 40.7383 10.5547 40.877 10.448C41.1223 10.256 41.3357 10.0373 41.517 9.792C41.7303 9.51467 41.933 9.22133 42.125 8.912C42.317 8.592 42.4823 8.29867 42.621 8.032C42.6743 7.94667 42.7117 7.904 42.733 7.904C42.797 7.904 42.829 7.99467 42.829 8.176C42.829 8.26133 42.813 8.36267 42.781 8.48C42.7597 8.58667 42.7223 8.688 42.669 8.784C42.5197 9.04 42.3437 9.32267 42.141 9.632C41.9383 9.94133 41.7303 10.24 41.517 10.528C41.3677 10.7307 41.1703 10.9547 40.925 11.2C40.6797 11.4453 40.4183 11.6587 40.141 11.84C39.8637 12.0107 39.597 12.096 39.341 12.096ZM41.2097 12C41.3271 11.7867 41.4604 11.5147 41.6097 11.184C41.7484 10.8533 41.8871 10.496 42.0257 10.112C42.1751 9.71733 42.3084 9.33867 42.4257 8.976C42.6924 8.15467 42.9644 7.344 43.2417 6.544C43.5297 5.744 43.8177 5.05067 44.1057 4.464C44.2231 4.208 44.3724 3.89867 44.5537 3.536C44.7351 3.16267 44.9377 2.77867 45.1617 2.384C45.3964 1.98933 45.6471 1.62133 45.9137 1.28C46.1911 0.928 46.4844 0.645333 46.7937 0.431999C47.1137 0.218666 47.4444 0.112 47.7857 0.112C48.1271 0.112 48.3564 0.186666 48.4737 0.335999C48.6017 0.485333 48.6657 0.672 48.6657 0.896C48.6657 1.14133 48.6124 1.40267 48.5057 1.68C48.3991 1.95733 48.2977 2.18667 48.2017 2.368C47.9884 2.77333 47.7111 3.232 47.3697 3.744C47.0391 4.24533 46.6924 4.71467 46.3297 5.152C46.1484 5.376 45.9297 5.632 45.6737 5.92C45.4177 6.19733 45.1617 6.464 44.9057 6.72C44.6604 6.976 44.4471 7.19467 44.2657 7.376L43.9777 8.176C44.2551 7.81333 44.5484 7.488 44.8577 7.2C45.1671 6.912 45.5031 6.624 45.8657 6.336C46.1324 6.12267 46.4097 5.96267 46.6977 5.856C46.9964 5.74933 47.2684 5.696 47.5137 5.696C47.6951 5.696 47.8604 5.72267 48.0097 5.776C48.1697 5.82933 48.2871 5.91467 48.3617 6.032C48.4151 6.10667 48.4524 6.18667 48.4737 6.272C48.4951 6.35733 48.5057 6.44267 48.5057 6.528C48.5057 6.69867 48.4737 6.864 48.4097 7.024C48.2711 7.35467 48.0684 7.63733 47.8017 7.872C47.5457 8.096 47.2524 8.26667 46.9217 8.384C46.8044 8.42667 46.6497 8.47467 46.4577 8.528C46.2657 8.58133 46.0951 8.61867 45.9457 8.64C45.9671 8.78933 45.9831 8.93867 45.9937 9.088C46.0151 9.23733 46.0364 9.38667 46.0577 9.536C46.1217 9.89867 46.2017 10.208 46.2977 10.464C46.4044 10.72 46.5697 10.848 46.7937 10.848C46.9964 10.848 47.2684 10.7147 47.6097 10.448C47.8551 10.256 48.0684 10.0373 48.2497 9.792C48.4631 9.51467 48.6657 9.22133 48.8577 8.912C49.0497 8.592 49.2151 8.29867 49.3537 8.032C49.3964 7.95733 49.4337 7.92 49.4657 7.92C49.5297 7.92 49.5617 8.00533 49.5617 8.176C49.5617 8.272 49.5457 8.37867 49.5137 8.496C49.4924 8.60267 49.4497 8.70933 49.3857 8.816C49.2364 9.072 49.0604 9.34933 48.8577 9.648C48.6657 9.94667 48.4631 10.24 48.2497 10.528C48.1324 10.688 47.9831 10.864 47.8017 11.056C47.6204 11.248 47.4284 11.424 47.2257 11.584C47.0444 11.7227 46.8257 11.8507 46.5697 11.968C46.3137 12.0747 46.0631 12.128 45.8177 12.128C45.6257 12.128 45.4444 12.0853 45.2737 12C45.1137 11.9147 44.9804 11.7707 44.8737 11.568C44.7564 11.344 44.6657 11.0773 44.6017 10.768C44.5377 10.4587 44.5057 10.1493 44.5057 9.84C44.5057 9.66933 44.5111 9.504 44.5217 9.344C44.5431 9.17333 44.5751 9.01867 44.6177 8.88C44.6711 8.69867 44.7244 8.576 44.7777 8.512C44.8311 8.448 44.9004 8.416 44.9857 8.416C45.2951 8.40533 45.5991 8.36267 45.8977 8.288C46.1964 8.20267 46.4471 8.06933 46.6497 7.888C46.8951 7.67467 47.0177 7.43467 47.0177 7.168C47.0177 7.05067 46.9751 6.94933 46.8897 6.864C46.8151 6.768 46.6871 6.72 46.5057 6.72C46.2604 6.72 46.0204 6.8 45.7857 6.96C45.5511 7.12 45.3271 7.328 45.1137 7.584C44.9004 7.84 44.7031 8.10667 44.5217 8.384C44.3404 8.65067 44.1857 8.896 44.0577 9.12C43.9617 9.28 43.8551 9.488 43.7377 9.744C43.6204 10 43.4977 10.2667 43.3697 10.544C43.2417 10.8213 43.1137 11.072 42.9857 11.296C42.8577 11.52 42.7351 11.6853 42.6177 11.792C42.4791 11.9307 42.3351 12 42.1857 12H41.2097ZM44.6817 6.288C45.2151 5.66933 45.7377 5.01867 46.2497 4.336C46.7617 3.65333 47.1991 2.95467 47.5617 2.24C47.5937 2.18667 47.6471 2.07467 47.7217 1.904C47.7964 1.73333 47.8657 1.54667 47.9297 1.344C48.0044 1.14133 48.0417 0.965332 48.0417 0.815999C48.0417 0.624 47.9671 0.528 47.8177 0.528C47.6684 0.528 47.4871 0.656 47.2737 0.912C47.0711 1.168 46.8524 1.50933 46.6177 1.936C46.3937 2.352 46.1644 2.816 45.9297 3.328C45.6951 3.82933 45.4711 4.34133 45.2577 4.864C45.0444 5.376 44.8524 5.85067 44.6817 6.288ZM52.4599 4.32C52.1825 4.224 52.0439 4.04267 52.0439 3.776C52.0439 3.53067 52.1399 3.28 52.3319 3.024C52.5345 2.75733 52.7532 2.58667 52.9879 2.512C53.0412 2.49067 53.0839 2.48 53.1159 2.48C53.1585 2.48 53.2012 2.48 53.2439 2.48C53.4252 2.48 53.5745 2.53333 53.6919 2.64C53.8092 2.74667 53.8679 2.86933 53.8679 3.008C53.8679 3.2 53.7665 3.36 53.5639 3.488C53.4039 3.46667 53.2492 3.504 53.0999 3.6C52.9505 3.696 52.8172 3.81333 52.6999 3.952C52.5932 4.09067 52.5132 4.21333 52.4599 4.32ZM49.7079 12.096C49.5692 12.096 49.4359 12.064 49.3079 12C49.1799 11.9467 49.0732 11.8347 48.9879 11.664C48.8705 11.408 48.8119 11.104 48.8119 10.752C48.8119 10.368 48.8705 9.94133 48.9879 9.472C49.1052 8.992 49.2599 8.50133 49.4519 8C49.5265 7.81867 49.6225 7.59467 49.7399 7.328C49.8572 7.06133 49.9959 6.79467 50.1559 6.528C50.3159 6.26133 50.4972 6.04267 50.6999 5.872C50.9132 5.69067 51.1425 5.6 51.3879 5.6C51.5052 5.6 51.6705 5.60533 51.8839 5.616C52.0972 5.62667 52.2519 5.62667 52.3479 5.616C52.2839 5.65867 52.2092 5.744 52.1239 5.872C52.0385 6 51.9585 6.13333 51.8839 6.272C51.8092 6.4 51.7505 6.50133 51.7079 6.576C51.4305 7.13067 51.1692 7.68 50.9239 8.224C50.6785 8.768 50.4919 9.29067 50.3639 9.792C50.3425 9.87733 50.3265 9.96267 50.3159 10.048C50.3052 10.1333 50.2999 10.2133 50.2999 10.288C50.2999 10.5973 50.4012 10.752 50.6039 10.752C50.6892 10.752 50.7799 10.7307 50.8759 10.688C50.9825 10.6347 51.1052 10.5547 51.2439 10.448C51.4892 10.256 51.7025 10.0373 51.8839 9.792C52.0972 9.51467 52.2999 9.22133 52.4919 8.912C52.6839 8.592 52.8492 8.29867 52.9879 8.032C53.0412 7.94667 53.0785 7.904 53.0999 7.904C53.1639 7.904 53.1959 7.99467 53.1959 8.176C53.1959 8.26133 53.1799 8.36267 53.1479 8.48C53.1265 8.58667 53.0892 8.688 53.0359 8.784C52.8865 9.04 52.7105 9.32267 52.5079 9.632C52.3052 9.94133 52.0972 10.24 51.8839 10.528C51.7345 10.7307 51.5372 10.9547 51.2919 11.2C51.0465 11.4453 50.7852 11.6587 50.5079 11.84C50.2305 12.0107 49.9639 12.096 49.7079 12.096ZM54.6166 12.128C54.574 12.1067 54.4886 12.0693 54.3606 12.016C54.2433 11.9627 54.1313 11.8987 54.0246 11.824C53.8966 11.728 53.8326 11.6107 53.8326 11.472C53.8326 11.3227 53.902 11.1787 54.0406 11.04C54.1473 10.9227 54.2806 10.8267 54.4406 10.752C54.6006 10.6773 54.7766 10.64 54.9686 10.64C55.15 10.64 55.3046 10.672 55.4326 10.736C55.5606 10.7893 55.6246 10.8907 55.6246 11.04C55.6246 11.072 55.614 11.1307 55.5926 11.216C55.5073 11.2267 55.3953 11.2907 55.2566 11.408C55.118 11.5253 54.9846 11.6533 54.8566 11.792C54.7393 11.9307 54.6593 12.0427 54.6166 12.128ZM59.0564 12.32C58.6937 12.32 58.3524 12.272 58.0324 12.176C57.7124 12.08 57.451 11.9307 57.2484 11.728C57.0457 11.5253 56.9444 11.2693 56.9444 10.96C56.9444 10.7253 57.0137 10.496 57.1524 10.272C57.3017 10.048 57.5097 9.936 57.7764 9.936C57.8937 9.936 58.0004 9.96267 58.0964 10.016C58.1924 10.0693 58.2564 10.1387 58.2884 10.224C58.2777 10.2347 58.251 10.272 58.2084 10.336C58.1657 10.3893 58.139 10.4267 58.1284 10.448C58.0324 10.64 57.9844 10.816 57.9844 10.976C57.9844 11.2 58.0644 11.3813 58.2244 11.52C58.395 11.6587 58.6137 11.728 58.8804 11.728C59.2324 11.7173 59.5364 11.5947 59.7924 11.36C60.059 11.1147 60.1924 10.8267 60.1924 10.496C60.1924 10.304 60.1497 10.1227 60.0644 9.952C59.9257 9.664 59.739 9.41867 59.5044 9.216C59.2804 9.00267 59.0617 8.78933 58.8484 8.576C58.6457 8.36267 58.4964 8.10667 58.4004 7.808C58.3577 7.66933 58.3364 7.49867 58.3364 7.296C58.3364 7.09333 58.363 6.896 58.4164 6.704C58.4697 6.50133 58.5497 6.33067 58.6564 6.192C58.8057 5.98933 59.0297 5.80267 59.3284 5.632C59.7017 5.42933 60.139 5.328 60.6404 5.328C60.971 5.328 61.2644 5.37067 61.5204 5.456C61.7124 5.52 61.8777 5.62667 62.0164 5.776C62.1657 5.91467 62.2404 6.10133 62.2404 6.336C62.2404 6.60267 62.155 6.85867 61.9844 7.104C61.8244 7.33867 61.5897 7.48267 61.2804 7.536C61.0884 7.55733 60.9177 7.52533 60.7684 7.44C60.619 7.344 60.5657 7.168 60.6084 6.912C60.8964 6.848 61.1044 6.73067 61.2324 6.56C61.2964 6.464 61.3284 6.368 61.3284 6.272C61.3284 6.09067 61.2537 5.968 61.1044 5.904C60.9657 5.82933 60.8324 5.792 60.7044 5.792C60.5444 5.792 60.3897 5.81333 60.2404 5.856C60.1017 5.888 59.9737 5.94667 59.8564 6.032C59.6217 6.23467 59.5044 6.46933 59.5044 6.736C59.5044 6.77867 59.5097 6.82667 59.5204 6.88C59.5417 6.93333 59.5577 6.98667 59.5684 7.04C59.6217 7.17867 59.7017 7.30667 59.8084 7.424C59.915 7.54133 60.0217 7.64267 60.1284 7.728C60.395 7.92 60.667 8.128 60.9444 8.352C61.2324 8.576 61.4457 8.848 61.5844 9.168C61.691 9.392 61.7444 9.62133 61.7444 9.856C61.7444 10.176 61.6644 10.4693 61.5044 10.736C61.3444 10.992 61.163 11.1947 60.9604 11.344C61.3124 11.1947 61.6537 10.9333 61.9844 10.56C62.3257 10.176 62.619 9.79733 62.8644 9.424C63.0244 9.17867 63.1684 8.94933 63.2964 8.736C63.435 8.512 63.5737 8.26667 63.7124 8C63.755 7.92533 63.7924 7.888 63.8244 7.888C63.8884 7.888 63.9204 7.97867 63.9204 8.16C63.9204 8.23467 63.9044 8.32533 63.8724 8.432C63.851 8.53867 63.8137 8.64533 63.7604 8.752C63.5684 9.072 63.387 9.37067 63.2164 9.648C63.0457 9.91467 62.8377 10.208 62.5924 10.528C62.1017 11.1787 61.579 11.6427 61.0244 11.92C60.4697 12.1867 59.8137 12.32 59.0564 12.32ZM67.5832 12.096C67.2206 12.096 66.9699 11.9893 66.8312 11.776C66.7032 11.552 66.6392 11.296 66.6392 11.008C66.6392 10.6987 66.6872 10.3413 66.7832 9.936C66.8899 9.52 67.0179 9.09333 67.1672 8.656C67.3272 8.208 67.4872 7.792 67.6472 7.408C67.7006 7.28 67.7486 7.14133 67.7912 6.992C67.8446 6.84267 67.8712 6.70933 67.8712 6.592C67.8712 6.37867 67.7752 6.272 67.5832 6.272C67.5086 6.272 67.4232 6.288 67.3272 6.32C67.2312 6.34133 67.1192 6.38933 66.9912 6.464C66.7672 6.57067 66.5539 6.72 66.3512 6.912C66.1486 7.09333 66.0099 7.232 65.9352 7.328C65.7966 7.49867 65.6632 7.69067 65.5352 7.904C65.4072 8.10667 65.2952 8.31467 65.1992 8.528C64.9859 8.98667 64.8152 9.424 64.6872 9.84C64.5699 10.2453 64.4579 10.592 64.3512 10.88C64.2872 11.0613 64.2232 11.248 64.1592 11.44C64.0952 11.632 64.0366 11.8187 63.9832 12H62.4312C62.4312 12 62.4686 11.8667 62.5432 11.6C62.6179 11.3333 62.7086 11.0667 62.8152 10.8C63.3059 9.53067 63.7699 8.23467 64.2072 6.912C64.6446 5.58933 65.1726 4.32 65.7912 3.104C66.0686 2.56 66.3672 2.05867 66.6872 1.6C67.0179 1.14133 67.3646 0.778666 67.7272 0.511999C68.1006 0.234666 68.4899 0.0959997 68.8952 0.0959997C69.2152 0.0959997 69.4339 0.170666 69.5512 0.32C69.6792 0.458666 69.7432 0.634666 69.7432 0.848C69.7432 1.08267 69.6952 1.328 69.5992 1.584C69.5032 1.84 69.4072 2.05867 69.3112 2.24C69.1192 2.624 68.8686 3.056 68.5592 3.536C68.2499 4.016 67.9246 4.464 67.5832 4.88C67.5086 4.976 67.3806 5.13067 67.1992 5.344C67.0179 5.54667 66.8312 5.75467 66.6392 5.968C66.4579 6.18133 66.3139 6.34667 66.2072 6.464C66.5592 6.208 66.8632 6.01067 67.1192 5.872C67.3752 5.73333 67.5939 5.63733 67.7752 5.584C68.0846 5.49867 68.3406 5.456 68.5432 5.456C69.1512 5.456 69.4552 5.72267 69.4552 6.256C69.4552 6.48 69.3912 6.74667 69.2632 7.056C69.1992 7.22667 69.1086 7.456 68.9912 7.744C68.8739 8.032 68.7512 8.34133 68.6232 8.672C68.5059 8.992 68.4046 9.30133 68.3192 9.6C68.2446 9.89867 68.2072 10.144 68.2072 10.336C68.2072 10.4533 68.2232 10.56 68.2552 10.656C68.2979 10.7413 68.3726 10.784 68.4792 10.784C68.5539 10.784 68.6606 10.7467 68.7992 10.672C69.0979 10.5013 69.3752 10.2613 69.6312 9.952C69.8979 9.64267 70.1326 9.312 70.3352 8.96C70.5486 8.608 70.7299 8.288 70.8792 8C70.9112 7.92533 70.9486 7.888 70.9912 7.888C71.0446 7.888 71.0712 7.97867 71.0712 8.16C71.0712 8.24533 71.0606 8.34667 71.0392 8.464C71.0179 8.57067 70.9752 8.67733 70.9112 8.784C70.7619 9.04 70.5646 9.35467 70.3192 9.728C70.0846 10.1013 69.8179 10.4693 69.5192 10.832C69.2206 11.184 68.9059 11.4827 68.5752 11.728C68.2446 11.9733 67.9139 12.096 67.5832 12.096ZM65.7432 6.352C66.2766 5.72267 66.8152 5.05067 67.3592 4.336C67.9139 3.61067 68.3726 2.87467 68.7352 2.128C68.7566 2.07467 68.8046 1.968 68.8792 1.808C68.9539 1.648 69.0232 1.472 69.0872 1.28C69.1512 1.07733 69.1832 0.906666 69.1832 0.768C69.1832 0.586666 69.1139 0.495999 68.9752 0.495999C68.8366 0.495999 68.6712 0.591999 68.4792 0.783999C68.2979 0.976 68.1112 1.232 67.9192 1.552C67.6739 1.95733 67.4232 2.42667 67.1672 2.96C66.9112 3.48267 66.6606 4.03733 66.4152 4.624C66.1806 5.21067 65.9566 5.78667 65.7432 6.352ZM72.2949 12.128C71.8042 12.128 71.3775 11.9733 71.0149 11.664C70.6629 11.3547 70.4869 10.8587 70.4869 10.176C70.4869 9.67467 70.5775 9.152 70.7589 8.608C70.9402 8.064 71.1962 7.55733 71.5269 7.088C71.8682 6.61867 72.2789 6.23467 72.7589 5.936C73.2389 5.63733 73.7775 5.488 74.3749 5.488C74.8655 5.488 75.2442 5.584 75.5109 5.776C75.7882 5.95733 75.9855 6.20267 76.1029 6.512C76.2202 6.82133 76.2789 7.152 76.2789 7.504C76.2789 7.77067 76.2469 8.04267 76.1829 8.32C76.1295 8.58667 76.0495 8.85333 75.9429 9.12C76.1242 9.33333 76.3535 9.44 76.6309 9.44C76.9295 9.44 77.2069 9.328 77.4629 9.104C77.6122 8.976 77.7455 8.816 77.8629 8.624C77.9909 8.42133 78.1029 8.23467 78.1989 8.064C78.2309 8 78.2682 7.968 78.3109 7.968C78.3642 7.968 78.3909 8.04267 78.3909 8.192C78.3909 8.288 78.3749 8.4 78.3429 8.528C78.3215 8.656 78.2682 8.784 78.1829 8.912C78.0229 9.18933 77.8575 9.40267 77.6869 9.552C77.5162 9.69067 77.3242 9.80267 77.1109 9.888C76.9509 9.952 76.7802 9.984 76.5989 9.984C76.2682 9.984 75.9695 9.88267 75.7029 9.68C75.6175 9.86133 75.5109 10.048 75.3829 10.24C75.0735 10.7627 74.6735 11.2107 74.1829 11.584C73.6922 11.9467 73.0629 12.128 72.2949 12.128ZM72.9029 11.52C73.1482 11.52 73.3829 11.44 73.6069 11.28C73.8415 11.1093 74.0549 10.9013 74.2469 10.656C74.4389 10.4107 74.6042 10.1547 74.7429 9.888C74.8922 9.62133 75.0149 9.38667 75.1109 9.184C74.7482 8.87467 74.5669 8.48533 74.5669 8.016C74.5669 7.70667 74.6522 7.46667 74.8229 7.296C74.9935 7.12533 75.2282 7.05067 75.5269 7.072C75.5162 6.82667 75.4522 6.624 75.3349 6.464C75.2175 6.304 75.0255 6.224 74.7589 6.224C74.5135 6.224 74.2789 6.29867 74.0549 6.448C73.8415 6.59733 73.6389 6.78933 73.4469 7.024C73.2655 7.248 73.1002 7.48267 72.9509 7.728C72.8122 7.96267 72.6949 8.176 72.5989 8.368C72.4602 8.64533 72.3322 8.98133 72.2149 9.376C72.0975 9.77067 72.0389 10.1387 72.0389 10.48C72.0389 10.7787 72.0975 11.0293 72.2149 11.232C72.3429 11.424 72.5722 11.52 72.9029 11.52ZM75.3224 15.968C75.3757 15.8933 75.445 15.76 75.5304 15.568C75.6157 15.3867 75.7064 15.1893 75.8024 14.976C75.8984 14.7627 75.9784 14.5813 76.0424 14.432C76.2237 13.984 76.4317 13.4347 76.6664 12.784C76.901 12.144 77.141 11.472 77.3864 10.768C77.6317 10.064 77.8664 9.392 78.0904 8.752C78.3144 8.112 78.5117 7.584 78.6824 7.168C78.8424 6.784 78.981 6.48 79.0984 6.256C79.2157 6.02133 79.381 5.856 79.5944 5.76C79.8184 5.65333 80.1544 5.6 80.6024 5.6H81.0824C80.933 5.70667 80.7357 5.952 80.4904 6.336C80.2557 6.70933 80.0317 7.104 79.8184 7.52C79.893 7.424 79.9624 7.33333 80.0264 7.248C80.0904 7.152 80.1597 7.06667 80.2344 6.992C80.5757 6.576 80.9384 6.22933 81.3224 5.952C81.7064 5.67467 82.0797 5.536 82.4424 5.536C82.741 5.536 82.9917 5.648 83.1944 5.872C83.4077 6.096 83.5144 6.47467 83.5144 7.008C83.5144 7.49867 83.4184 7.99467 83.2264 8.496C83.045 8.98667 82.7997 9.456 82.4904 9.904C82.181 10.3413 81.8397 10.7307 81.4664 11.072C81.3917 11.1467 81.3064 11.2213 81.2104 11.296C81.125 11.36 81.0344 11.424 80.9384 11.488C81.2797 11.52 81.6157 11.44 81.9464 11.248C82.2877 11.056 82.597 10.8213 82.8744 10.544C83.1624 10.2667 83.397 10.016 83.5784 9.792C83.7917 9.51467 84.005 9.19467 84.2184 8.832C84.4424 8.46933 84.6237 8.14933 84.7624 7.872C84.805 7.79733 84.8424 7.76 84.8744 7.76C84.9597 7.76 85.0024 7.856 85.0024 8.048C85.0024 8.21867 84.949 8.39467 84.8424 8.576C84.757 8.736 84.6397 8.93867 84.4904 9.184C84.341 9.42933 84.2077 9.64267 84.0904 9.824C83.5997 10.5387 83.029 11.1253 82.3784 11.584C81.7277 12.0427 80.9437 12.272 80.0264 12.272C79.9517 12.272 79.8717 12.272 79.7864 12.272C79.7117 12.272 79.6317 12.2667 79.5464 12.256C79.2904 12.2347 79.0504 12.1707 78.8264 12.064C78.6024 11.968 78.453 11.7813 78.3784 11.504L77.4824 14.304C77.365 14.6773 77.2584 14.9867 77.1624 15.232C77.0557 15.4773 76.9277 15.6587 76.7784 15.776C76.6184 15.904 76.389 15.968 76.0904 15.968H75.3224ZM79.1784 11.584C79.3597 11.584 79.5677 11.4933 79.8024 11.312C80.037 11.12 80.2664 10.8853 80.4904 10.608C80.725 10.32 80.9224 10.0427 81.0824 9.776C81.3277 9.34933 81.5357 8.912 81.7064 8.464C81.877 8.016 81.9624 7.648 81.9624 7.36C81.9624 7.04 81.8344 6.88 81.5784 6.88C81.3544 6.88 81.109 6.98667 80.8424 7.2C80.6504 7.34933 80.4317 7.568 80.1864 7.856C79.9517 8.144 79.717 8.46933 79.4824 8.832C79.2584 9.184 79.0717 9.54667 78.9224 9.92C78.7837 10.2827 78.7144 10.6133 78.7144 10.912C78.7144 10.9653 78.7144 11.0187 78.7144 11.072C78.725 11.1147 78.7357 11.1627 78.7464 11.216C78.7997 11.4613 78.9437 11.584 79.1784 11.584Z" fill="white"/>
</svg>
